<?xml version="1.0" standalone="no"?>
<!DOCTYPE svg PUBLIC "-//W3C//DTD SVG 20010904//EN"
 "http://www.w3.org/TR/2001/REC-SVG-20010904/DTD/svg10.dtd">
<svg version="1.0" xmlns="http://www.w3.org/2000/svg"
 width="364.000000pt" height="74.000000pt" viewBox="0 0 364.000000 74.000000"
 preserveAspectRatio="xMidYMid meet">

<g transform="translate(0.000000,74.000000) scale(0.100000,-0.100000)"
fill="#000000" stroke="none">
<path d="M1785 541 c-4 -56 -12 -101 -17 -101 -5 0 -23 9 -39 21 -33 24 -37
15 -9 -21 27 -34 25 -38 -17 -45 -75 -12 -82 -22 -20 -29 31 -4 57 -10 57 -13
0 -3 -10 -22 -22 -41 l-22 -36 36 22 c20 13 39 19 41 15 3 -5 9 -53 13 -108 8
-115 10 -114 22 13 5 51 12 95 15 99 3 3 20 -5 36 -17 37 -25 38 -23 10 24
l-20 35 63 7 c67 8 62 15 -20 31 l-42 8 26 39 27 40 -37 -23 c-20 -13 -40 -21
-43 -18 -3 4 -10 48 -15 99 -5 51 -11 94 -12 96 -2 2 -7 -42 -11 -97z"/>
<path d="M93 488 c-50 -56 -36 -99 42 -135 40 -17 55 -30 53 -41 -4 -23 -63
-28 -94 -7 -24 15 -24 15 -24 -15 0 -24 5 -31 28 -37 86 -23 155 8 160 72 4
46 -22 77 -78 94 -28 8 -40 17 -40 31 0 26 35 34 72 16 39 -20 38 -20 38 8 0
29 -16 36 -84 36 -42 0 -57 -5 -73 -22z"/>
<path d="M280 480 c0 -27 2 -30 19 -20 11 5 27 10 36 10 15 0 16 -13 13 -110
l-3 -110 45 0 45 0 -3 110 c-5 120 -4 122 53 100 23 -9 26 -8 21 6 -3 8 -6 22
-6 30 0 11 -22 14 -110 14 l-110 0 0 -30z"/>
<path d="M540 484 c6 -14 10 -61 10 -104 0 -43 -4 -90 -10 -104 l-10 -26 110
0 c108 0 110 0 110 23 0 22 -3 23 -60 19 l-60 -4 0 42 0 43 40 -6 c37 -5 40
-3 40 19 0 21 -4 24 -40 24 -38 0 -40 2 -40 30 0 28 2 30 41 30 22 0 48 -4 58
-9 15 -9 17 -6 13 20 l-4 29 -104 0 -104 0 10 -26z"/>
<path d="M785 380 l0 -130 103 0 c81 0 102 3 102 14 0 8 3 22 7 31 5 15 3 16
-15 6 -11 -6 -39 -11 -62 -11 l-41 0 3 110 3 110 -50 0 -50 0 0 -130z"/>
<path d="M1031 478 c5 -18 9 -62 9 -98 0 -36 -4 -80 -9 -98 l-10 -32 105 0
c57 0 104 3 104 8 0 4 3 18 7 31 5 21 4 22 -15 12 -11 -6 -39 -11 -62 -11
l-42 0 4 110 3 110 -52 0 -52 0 10 -32z"/>
<path d="M1340 490 c0 -11 -20 -69 -44 -130 l-43 -110 33 0 c25 0 32 4 28 14
-3 8 0 24 6 36 9 18 19 21 58 18 45 -3 47 -4 50 -35 3 -33 4 -33 58 -33 53 0
63 6 45 25 -5 6 -30 61 -56 123 l-47 112 -44 0 c-37 0 -44 -3 -44 -20z m59
-122 c1 -5 -12 -8 -29 -8 -19 0 -28 4 -25 13 2 6 10 26 16 42 l11 30 13 -35
c8 -19 14 -38 14 -42z"/>
<path d="M2140 492 c0 -11 -20 -69 -44 -130 l-44 -112 28 0 c23 0 29 5 34 31
6 29 7 30 58 27 49 -3 53 -5 56 -30 3 -27 6 -28 56 -28 l53 0 -55 130 -56 130
-43 0 c-35 0 -43 -3 -43 -18z m48 -95 c16 -46 16 -47 -18 -47 -16 0 -30 3 -30
7 0 14 24 73 30 73 3 0 11 -15 18 -33z"/>
<path d="M2365 381 l0 -131 46 0 46 0 -5 50 c-4 40 -2 50 11 50 8 0 31 -22 51
-50 34 -47 38 -50 81 -50 l46 0 -30 43 c-16 24 -36 49 -45 56 -14 12 -13 15 9
33 32 25 34 77 4 104 -16 14 -40 19 -117 22 l-97 4 0 -131z m149 67 c15 -25
-3 -52 -38 -56 -24 -3 -26 -1 -26 38 0 39 2 41 26 38 15 -2 32 -11 38 -20z"/>
<path d="M2636 484 c-9 -34 -5 -37 28 -24 47 18 48 16 44 -100 l-3 -110 45 0
45 0 0 107 c0 116 0 116 53 99 21 -7 23 -5 20 21 l-3 28 -111 3 -112 3 -6 -27z"/>
<path d="M2964 500 c-11 -4 -33 -22 -47 -40 -53 -62 -26 -175 48 -206 109 -45
215 17 215 127 0 52 -23 90 -70 114 -31 16 -112 19 -146 5z m120 -52 c23 -33
21 -109 -5 -142 -44 -56 -109 -13 -109 73 0 62 21 91 65 91 24 0 39 -7 49 -22z"/>
<path d="M3225 380 l0 -130 45 0 45 0 0 130 0 130 -45 0 -45 0 0 -130z"/>
<path d="M3403 498 c-28 -13 -47 -60 -39 -93 5 -19 22 -33 63 -53 65 -31 75
-47 39 -63 -20 -10 -32 -8 -65 10 l-41 21 0 -30 c0 -26 5 -31 42 -41 88 -23
158 13 158 82 0 42 -29 73 -80 84 -33 7 -55 29 -45 45 8 13 61 13 86 0 16 -9
19 -7 19 14 0 13 -7 27 -16 30 -24 9 -97 6 -121 -6z"/>
</g>
</svg>
