<svg version="1.1" id="Layer_1" xmlns:x="ns_extend;" xmlns:i="ns_ai;" xmlns:graph="ns_graphs;" xmlns="http://www.w3.org/2000/svg" xmlns:xlink="http://www.w3.org/1999/xlink" x="0px" y="0px" viewBox="0 0 308.8 100" style="enable-background:new 0 0 308.8 100;" xml:space="preserve">
 <style type="text/css">
  .st0{fill:#C80F2E;}
 </style>
 <metadata>
  <sfw xmlns="ns_sfw;">
   <slices>
   </slices>
   <sliceSourceBounds bottomLeftOrigin="true" height="100" width="308.8" x="-161.8" y="0.2">
   </sliceSourceBounds>
  </sfw>
 </metadata>
 <g id="Layer_1_1_">
 </g>
 <g id="GUIDES">
  <path class="st0" d="M308.8,0l-64.5,99.8L123.1,75.8L0,95.4l33.2-51.3c1.1,0.6,2.3,1.1,3.8,1.3L8.2,90.1l115.1-18.3l119.1,23.5
		l25-38.7h0.2c2.1,0,3.8-0.8,4.6-1.5l-0.8-1.7l-1.5-1.1l30.3-46.8L148.5,35.1c1.1-1.9,2.1-3.6,2.7-4.6L308.8,0z M210.1,38.9
		c1.9,0,3.4-1.9,3.4-3.8c0-1.7-1.1-2.3-2.3-2.3c-2.1,0-3.6,2.1-3.6,3.8C207.6,37.8,208.4,38.9,210.1,38.9z M44.1,25.6
		c0.2,0,0.6,0,0.8,0h0.2l16-24.4l81.1,31.1c0.2-0.2,0.2-0.4,0.4-0.6c1.1-1.9,1.9-3.2,1.9-3.2l6.1-0.4c-4.4,7.4-12.8,21-13.4,22.1
		c-3.6,6.1-5.3,9-5.3,10.7c0,0.6,0.2,1.1,0.8,1.1c1.9,0,5.9-2.9,13.9-13c0.6-0.8,2.5-3.6,3.4-4.6l5.7-0.2
		c-3.2,4.8-7.6,11.3-9.5,14.7c-0.8,1.3-1.3,2.1-1.3,2.5c0,0.6,0.4,0.8,0.8,0.8c2.1,0,6.3-3.4,12.2-11.8c1.5-2.1,2.5-3.8,4-5.9
		l5.7-0.2c-1.7,2.5-4.8,7.8-5.3,8.4c-2.7,4.4-4.2,7.1-4.2,8.4c0,0.6,0.2,1.1,1.1,1.1c4.2,0,9.9-7.6,11.3-11.6c0-2.7,0.4-5,1.5-6.3
		c0.4-0.6,1.1-1.3,2.3-1.3c0.8,0,1.5,0.4,1.5,1.1c0,1.1-1.3,4-3.4,7.6c0.6,1.5,1.9,2.3,3.4,2.7c2.3-4.2,7.6-11.1,14.5-11.1
		c2.5,0,3.6,0.8,3.6,2.7c0,3.6-5.5,8.6-13,9.7c-0.6,1.3-1.3,2.7-1.3,4.2c0,1.3,0.6,2.3,2.5,2.3c6.1,0,13.4-9.2,17.4-14.5
		c0.2-0.4,1.9-2.5,2.3-3.2l5.7-0.4c-4.8,7.6-6.3,10.1-6.3,10.1c-1.5,2.5-3.4,5.7-3.4,6.7c0,0.6,0.4,1.1,1.1,1.1
		c2.3,0,6.5-3.8,12.4-9.9c2.5-2.5,5.3-5.5,7.1-7.6c0.6-2.3,1.9-3.4,3.4-3.4c1.3,0,1.7,0.6,1.7,1.7c0,1.3-1.1,2.1-2.1,2.3
		c0,0.2,0,0.6,0,1.1c0,2.3,0.2,4,0.2,6.5c0,2.3-0.4,4.4-1.7,6.5c2.9-2.3,8.8-8,12.4-11.1c3.6-3.4,7.1-4.6,9.9-4.6
		c2.3,0,3.6,0.8,3.6,2.7c0,4.6-7.8,9-13,9.7c-0.6,1.1-1.3,2.9-1.3,4.4c0,1.3,0.8,2.1,2.1,2.1c4.2,0,8.4-4.4,11.8-8.4
		c5.3-6.5,7.6-10.1,11.6-10.1c2.1,0,3.2,1.1,3.2,2.5c0,1.9-0.8,3.6-2.7,6.9c6.1-7.8,9-9.5,11.1-9.5c1.5,0,2.5,0.8,2.5,1.9
		c-2.1,0.6-4.2,3.6-4.2,5.7c0,0.6,0.2,1.1,0.4,1.5c0.2,0.2,0.6,0.4,1.3,0.4s1.3-0.2,2.1-0.6l0.4,1.1c-1.1,0.6-2.1,0.8-3.6,0.8
		c-2.7,0-4.2-1.3-4.2-3.4c0-1.3,0.6-2.7,1.5-4c-3.6,3.2-10.9,12.6-13.4,16.8l-5.7,0.2c0.8-1.3,5.7-8.4,9-14.3
		c1.1-1.9,1.7-2.7,1.7-3.6c0-0.4-0.2-0.6-0.6-0.6c-1.9,0-4.8,3.8-8.8,8.8c-2.9,3.8-8.2,10.1-15.1,10.1c-3.6,0-5.3-1.9-5.3-4.4
		c0-2.3,0.8-4.4,2.1-6.3c-1.7,1.5-3.4,2.9-5,4.4c-3.2,2.9-7.4,6.3-13,6.3c-2.9,0-4.6-1.3-4.6-2.7c0-0.8,0.6-1.5,1.3-1.5
		c1.9,0,1.3,2.7,3.8,2.7c2.9,0,5.3-2.7,6.7-11.1c0.2-1.1,0.6-3.4,1.1-4.8c-4.4,4.6-7.6,7.8-8.8,9.2c-3.8,3.8-8.2,8-12.4,8
		c-2.3,0-3.8-1.3-3.8-3.2c0-1.3,0.6-2.9,2.1-5.9c-3.4,3.6-8.6,9-15.1,9c-3.8,0-5.5-1.9-5.5-4.6c0-1.3,0.4-2.7,1.1-4.2
		c-1.5-0.4-2.7-1.3-3.6-2.5c-1.7,2.7-3.8,5.5-6.7,8c-2.9,2.7-5.7,3.6-8,3.6s-3.8-1.1-3.8-3.2c0-1.5,0.8-3.2,1.5-4.6
		c-3.2,3.8-7.1,7.8-11.6,7.8c-1.9,0-3.6-0.8-3.6-3.2c0-1.5,0.8-2.9,2.1-5.3c-2.7,2.9-7.1,8.4-12.2,8.4c-2.3,0-3.6-1.3-3.6-3.2
		c0-1.7,0.8-3.4,1.5-4.6c-0.6,0.8-1.3,1.5-1.7,2.1c-3.6,4-6.5,5.7-9.7,5.7c-2.3,0-3.8-1.3-3.8-3.6c0-1.1,0.4-2.5,0.8-3.6
		c-3.4,3.6-7.1,7.1-11.3,7.1c-2.3,0-3.4-1.3-3.4-2.9c0-1.1,0.4-2.3,1.3-4L99.4,59c-2.9,2.9-6.5,5.5-9.9,5.5c-2.1,0-3.6-1.1-3.6-3.2
		c0-1.5,1.1-4,3.8-7.8L88,55.3c-8.4,8-16.8,12.8-25.8,12.8c-6.7,0-8.8-2.9-8.8-6.5c0-0.8,0.2-1.7,0.2-1.7l-1.3,1.5
		c-3.4,4.2-5.9,6.5-9.2,6.5c-2.7,0-5-1.3-5-3.8c0-1.5,0.8-2.9,1.9-4.8c2.3-3.8,8.6-13,13.2-19.7c-2.9,1.9-7.1,3.4-12.6,3.4
		c-7.8,0-11.6-3.2-11.6-7.8C28.8,29.8,34.5,25.8,44.1,25.6z M233.2,54.4c4.4-0.6,9.9-5.3,9.9-8.6c0-0.6-0.2-1.1-0.8-1.1
		C239.7,45,236.6,48.3,233.2,54.4z M181.7,54.4c4.4-0.6,9.9-5,9.9-8.6c0-0.6-0.4-1.1-1.1-1.1C187.8,45,184.5,49.6,181.7,54.4z
		 M57.6,50.4c4.2-6.1,8.4-12.6,11.1-16.6c-1.3-0.6-2.5-1.3-3.6-1.9C63.7,33.8,46.2,59.7,45,61.8c-1.1,1.7-1.3,2.5-1.3,2.9
		s0.2,0.8,0.8,0.8c0.6,0,1.5-0.4,2.5-1.3C49.6,62.2,52.9,57.4,57.6,50.4z M66,44.7l1.3-2.1c4,0,7.1,0,9.2-1.1c5-2.3,7.6-8,7.6-10.7
		c0-1.9-0.8-3.6-3.4-3.6c-3.8,0-7.4,3.8-9.5,6.5c1.9,1.1,3.4,2.1,4.2,2.9l-0.6,1.1c-1.3-1.1-2.7-1.9-4.2-2.9
		c-2.5,3.2-8,11.8-11.8,17.2c2.5-1.7,5.7-2.1,7.8-2.1v1.5c-7.4,0.2-11.8,5-11.8,10.1c0,2.7,1.5,4.6,5.5,4.6
		c9.2,0,15.3-9.9,15.3-16.2c0-2.9-1.1-5.5-5.7-5.5h-2.1C67,44.5,66.4,44.7,66,44.7z M132.8,47.1c0-1.1-0.8-1.9-2.1-1.9
		c-2.3,0-4.4,1.5-7.6,5.3c-2.5,3.4-5.3,8.2-5.3,10.3c0,0.6,0.2,1.3,1.3,1.3s2.9-0.8,5.7-3.8c2.5-2.7,5.5-6.5,7.6-10.3
		C132.8,47.7,132.8,47.3,132.8,47.1z M49.8,26.1c0.8,0,1.9,0.2,2.7,0.4c3.4,0.6,6.1,1.5,8.6,2.3c0.4-0.6,0.8-1.3,1.3-1.9l6.7-0.2
		c-0.6,0.8-1.7,2.5-3.2,4.2c1.3,0.6,2.5,1.3,3.8,1.9C73.9,27.5,77.9,25,83,25c5.5,0,7.6,3.2,7.6,6.3c0,2.9-1.7,6.3-3.8,8.2
		c-2.7,2.7-6.5,4-9.5,4.6c1.7,0.8,4.6,2.3,4.6,7.1c0,4-2.3,7.8-4.8,10.7c5-2.9,12.2-9.7,15.3-13.7c0.6-0.8,2.1-2.7,2.7-3.8l5.9-0.4
		c0,0-7.6,11.3-9.2,14.3c-0.8,1.7-1.3,2.3-1.3,2.7c0,0.4,0.2,0.8,0.8,0.8c2.3,0,6.7-3.8,9.7-8c1.5-1.9,6.5-9.5,6.5-9.5l6.1-0.4
		c-4.8,7.6-6.5,10.1-6.5,10.1c-1.7,2.5-2.9,4.8-3.2,6.1c-0.2,0.4-0.2,0.6-0.2,0.8c0,0.6,0.2,0.8,0.8,0.8c3.6,0,9.9-8.2,11.8-10.7
		c3.6-4.6,8.2-7.8,13-7.8c2.1,0,3.6,0.8,4.2,2.3c1.3-2.1,3.6-5.7,5.5-9c0.2-0.4,0.4-0.6,0.6-0.8L62.6,6.1L49.8,26.1z M31.3,35.7
		c0,1.5,0.4,2.7,1.5,3.8c0.6,0.6,1.5,1.3,2.5,1.5l7.6-11.6c0.8,0,1.9-0.2,2.9-0.2c0.6,0,1.3,0,1.9,0l-8,12.4c0.4,0,0.8,0,1.3,0
		c0.6,0,1.3,0,1.9,0C50.4,41,55,37,56.7,34.9c0,0,3.6-5,3.8-5.3c-3.6-1.3-8.6-2.7-14.7-2.7C36.6,27.3,31.3,30.9,31.3,35.7z
		 M255.5,97.7c0,0.6-0.2,1.3-0.6,1.7c-0.4,0.4-1.1,0.6-1.7,0.6c-0.6,0-1.3-0.2-1.7-0.6c-0.4-0.4-0.6-1.1-0.6-1.7s0.2-1.3,0.6-1.7
		c0.4-0.4,1.1-0.6,1.7-0.6c0.6,0,1.3,0.2,1.7,0.6C255.3,96.4,255.5,96.8,255.5,97.7z M255,97.7c0-0.6-0.2-1.1-0.6-1.5
		c-0.4-0.4-0.8-0.6-1.5-0.6c-0.6,0-1.1,0.2-1.5,0.6c-0.4,0.4-0.6,0.8-0.6,1.5s0.2,1.1,0.6,1.5c0.4,0.4,0.8,0.6,1.5,0.6
		s1.1-0.2,1.5-0.6C254.8,98.7,255,98.1,255,97.7z M254.2,98.9h-0.6l-0.4-1.1h-0.6v1.1h-0.6V96h1.3c0.4,0,0.6,0,0.8,0.2
		c0.2,0.2,0.2,0.4,0.2,0.6c0,0.4-0.2,0.6-0.6,0.8L254.2,98.9z M252.5,97.5h0.6c0.4,0,0.6-0.2,0.6-0.4c0-0.2-0.2-0.4-0.4-0.4h-0.6
		v0.8H252.5z">
  </path>
 </g>
</svg>