<?xml version="1.0" encoding="iso-8859-1"?>
<!-- Generator: Adobe Illustrator 21.0.0, SVG Export Plug-In . SVG Version: 6.00 Build 0)  -->
<svg version="1.1" id="Capa_1" xmlns="http://www.w3.org/2000/svg" xmlns:xlink="http://www.w3.org/1999/xlink" x="0px" y="0px"
	 viewBox="0 0 360.74 127.48" style="enable-background:new 0 0 360.74 127.48;" xml:space="preserve">
<g>
	<polygon style="fill-rule:evenodd;clip-rule:evenodd;fill:#A3152F;" points="5,107.45 186.97,122.48 186.97,107.45 340.93,107.45 
		355.74,5 19.81,5 5,107.45 	"/>
	<path style="fill-rule:evenodd;clip-rule:evenodd;fill:#FFFFFF;" d="M156.92,41.61c4.04-1.19,7.52,0.17,8.85,2.69
		c1.36,2.57,0.83,19.1,0.79,23.01c-0.04,4.37-0.33,6.51-4.07,7.63c-3.62,1.08-7.45,0.12-8.66-2.41c-1.44-3-0.79-7.61-0.76-11.15
		c0.04-3.95-0.1-7.94,0.05-11.87C153.27,45.51,153.33,42.67,156.92,41.61L156.92,41.61z M163.9,84.04
		c14.68-1.77,12.1-12.67,12.12-28c0.01-14.52,0.76-23.76-15.77-23.94c-6.41-0.07-12.09,1.43-14.55,5.52
		c-2.61,4.34-2.05,12.37-2.05,17.82c0,5.36-0.58,14.53,0.46,19.42c1.07,5.01,5,9.09,10.86,8.98c-0.88,2.11-3.28,4.1-3.62,7.09
		c7.41-0.6,9.75,1.7,16.25,3.12c2.91,0.63,5.96,1.12,7.98-0.73c1.11-1.02,3.21-4.2,3.79-6.3c-4.16,0.69-4.48,0.7-8.58-0.55
		C168.65,85.83,165.72,84.91,163.9,84.04L163.9,84.04z"/>
	<polygon style="fill-rule:evenodd;clip-rule:evenodd;fill:#FFFFFF;" points="261.4,55.99 275.03,83.45 284.43,83.43 284.33,33.43 
		275.21,33.32 275.11,63.23 261.42,33.18 252.2,33.25 252.28,83.59 261.58,83.66 261.4,55.99 	"/>
	<path style="fill-rule:evenodd;clip-rule:evenodd;fill:#FFFFFF;" d="M181.3,33.18c-0.42,6.44-0.06,25.93-0.07,33.83
		c-0.01,12.66,3.37,17.49,16.39,17.48c13.14-0.01,15.87-5.29,16.12-17.78l-0.16-33.57l-9.5,0c-0.52,11.3,0.69,26.46-0.03,36.41
		c-0.3,4.16-2.54,5.39-6.74,5.4c-4.23,0.01-6.27-1.41-6.56-5.54l-0.07-36.2L181.3,33.18L181.3,33.18z"/>
	<path style="fill-rule:evenodd;clip-rule:evenodd;fill:#FFFFFF;" d="M71.31,33.06c-0.54,2.08-0.1,29.29-0.03,33.66
		c0.09,5.75-0.28,10.01,3.27,13.59c3.6,3.62,7.13,4.09,12.69,4.1c12.66,0.04,16.21-5.16,16.37-17.39l-0.09-33.83l-9.33,0.06
		c-0.39,8.35,0.39,31.63-0.18,36.7c-0.42,3.76-2.84,5.3-6.79,5.36c-4.17,0.07-6.32-1.97-6.6-5.91l-0.13-36.3L71.31,33.06
		L71.31,33.06z"/>
	<path style="fill-rule:evenodd;clip-rule:evenodd;fill:#FFFFFF;" d="M305.45,46.03l3.6,19.63l-7.12,0L305.45,46.03L305.45,46.03z
		 M300.2,74.85l10.31,0.09l2.27,8.72l10.13-0.09l-12.03-50.23l-10.61-0.06l-12.08,50.21l9.86,0.17L300.2,74.85L300.2,74.85z"/>
	<path style="fill-rule:evenodd;clip-rule:evenodd;fill:#FFFFFF;" d="M107.58,81.14c5.29,3.45,19.04,4.56,24.91,1.44
		c3.04-1.62,5.46-4.48,6.46-8.63c0.95-3.94,0.36-9.48-1.42-12.71c-3.97-7.19-15.2-6.16-19.04-11.21c-1.3-1.7-0.93-4.46,0.27-6.1
		c3.37-4.64,14.05-0.45,17.91,0.43l-0.94-10.32c-0.38-0.28-0.2-0.2-0.78-0.42c-0.28-0.11-0.41-0.13-0.69-0.2
		c-6.84-1.65-16.79-2.45-21.77,2.75c-4.9,5.12-5.92,16.2-0.57,21.64c5.94,6.03,17.89,4.94,18.32,11.04
		c0.35,4.95-3.94,6.41-8.54,5.88c-6.9-0.79-7.43-2.13-11.31-3.22L107.58,81.14L107.58,81.14z"/>
	<path style="fill-rule:evenodd;clip-rule:evenodd;fill:#FFFFFF;" d="M65.24,72.73c-4.13,0.61-11.03,3.99-14.81,0.55
		c-5.09-4.63-4.58-25.52-0.38-29.79c1.65-1.68,4.89-1.72,7.8-1.38c1.77,0.21,6.28,1.58,7.31,1.47l-0.06-10.21
		c-2.21-0.84-10.66-1.6-13.19-1.36c-4.69,0.44-7.8,1.68-9.96,4.27c-4.55,5.47-4.82,15.5-4.72,23.63
		c0.28,23.34,7.68,28.23,30.32,22.29L65.24,72.73L65.24,72.73z"/>
	<path style="fill-rule:evenodd;clip-rule:evenodd;fill:#FFFFFF;" d="M254.89,24.7c10.75-0.16,7.56,1.13,16.32,3.13
		c2.68,0.61,6.12,1.23,8.08-0.53c0.95-0.85,3.07-4.56,3.5-6.31c-10.1,1.24-19.02-6.56-24.28-2.59
		C257.44,19.21,255.41,22.62,254.89,24.7L254.89,24.7z"/>
	<polygon style="fill-rule:evenodd;clip-rule:evenodd;fill:#FFFFFF;" points="219.15,32.89 228.89,32.89 247.38,32.89 247.38,42.95 
		228.89,42.95 228.89,53.13 242.64,53.13 242.64,63.19 228.89,63.19 228.89,73.69 247.38,73.69 247.38,83.76 228.89,83.76 
		219.15,83.76 219.15,73.69 219.15,42.95 219.15,32.89 	"/>
	<path style="fill:#FFFFFF;" d="M320.48,33.66c0.51,0,1.01,0.13,1.49,0.39c0.49,0.26,0.86,0.64,1.14,1.12
		c0.27,0.49,0.41,1,0.41,1.52c0,0.52-0.13,1.03-0.4,1.51c-0.27,0.48-0.64,0.86-1.12,1.13c-0.48,0.27-0.99,0.4-1.51,0.4
		c-0.53,0-1.03-0.13-1.51-0.4c-0.48-0.27-0.86-0.64-1.13-1.13c-0.27-0.48-0.4-0.99-0.4-1.51c0-0.53,0.14-1.04,0.41-1.52
		c0.27-0.49,0.65-0.86,1.14-1.12C319.47,33.79,319.96,33.66,320.48,33.66L320.48,33.66z M320.48,34.17c-0.43,0-0.84,0.11-1.25,0.33
		c-0.4,0.22-0.72,0.53-0.95,0.94c-0.23,0.41-0.34,0.83-0.34,1.27c0,0.44,0.11,0.86,0.34,1.26c0.22,0.4,0.54,0.71,0.94,0.94
		c0.4,0.22,0.82,0.34,1.26,0.34c0.44,0,0.86-0.11,1.26-0.34c0.4-0.22,0.72-0.54,0.94-0.94c0.22-0.4,0.33-0.82,0.33-1.26
		c0-0.44-0.11-0.86-0.34-1.27c-0.23-0.41-0.54-0.72-0.95-0.94C321.32,34.28,320.9,34.17,320.48,34.17L320.48,34.17z M319.14,38.38
		v-3.27h1.12c0.38,0,0.66,0.03,0.83,0.09c0.17,0.06,0.31,0.16,0.41,0.32c0.1,0.15,0.15,0.31,0.15,0.48c0,0.24-0.09,0.45-0.26,0.62
		c-0.17,0.18-0.4,0.28-0.68,0.3c0.12,0.05,0.21,0.11,0.28,0.17c0.13,0.13,0.29,0.34,0.48,0.65l0.4,0.64h-0.64l-0.29-0.51
		c-0.23-0.41-0.41-0.66-0.55-0.76c-0.1-0.07-0.24-0.11-0.42-0.11h-0.31v1.39H319.14L319.14,38.38z M319.67,36.54h0.64
		c0.31,0,0.52-0.05,0.63-0.14c0.11-0.09,0.17-0.21,0.17-0.36c0-0.1-0.03-0.18-0.08-0.26c-0.05-0.08-0.13-0.13-0.22-0.17
		c-0.1-0.04-0.27-0.06-0.53-0.06h-0.6V36.54L319.67,36.54z"/>
</g>
</svg>
